<svg version="1.1" xmlns="http://www.w3.org/2000/svg" xmlns:xlink="http://www.w3.org/1999/xlink" viewBox="0 0 172 172"><g fill="none" fill-rule="nonzero" stroke="none" stroke-width="1" stroke-linecap="butt" stroke-linejoin="miter" stroke-miterlimit="10" stroke-dasharray="" stroke-dashoffset="0" font-family="none" font-weight="none" font-size="none" text-anchor="none" style="mix-blend-mode: normal"><path d="M0,172v-172h172v172z" fill="none"></path><g><path d="M125.41667,53.75c0,1.075 -3.58333,22.93333 -14.33333,31.89167c14.33333,-45.86667 -25.08333,-71.66667 -25.08333,-71.66667c0,0 -6.09167,34.04167 -17.91667,46.94167c-0.71667,-14.69167 -8.95833,-23.65 -8.95833,-23.65c-6.09167,26.51667 -26.875,49.45 -26.875,66.65c0,29.74167 24.00833,53.75 53.75,53.75c29.74167,0 53.75,-24.00833 53.75,-53.75c0,-21.5 -6.09167,-37.26667 -14.33333,-50.16667z" fill="#63ec88"></path><path d="M103.91667,130.79167c0,10.03333 -7.88333,17.91667 -17.91667,17.91667c-10.03333,0 -17.91667,-7.88333 -17.91667,-17.91667c0,-10.03333 17.91667,-44.79167 17.91667,-44.79167c0,0 17.91667,34.75833 17.91667,44.79167z" fill="#c2f779"></path></g></g></svg>